<svg width="18" height="18" viewBox="0 0 18 18" fill="none" xmlns="http://www.w3.org/2000/svg">
<path d="M13.3224 6.2378L13.7286 6.003C13.2754 5.2904 12.6658 4.6866 11.9482 4.2404L11.6954 4.6778C11.6402 4.7734 11.5178 4.8062 11.4222 4.7508C11.3264 4.6958 11.2936 4.5732 11.349 4.4778L11.6016 4.0418C10.8792 3.6614 10.0642 3.434 9.2 3.4036V3.8668C9.2 3.977 9.1104 4.0668 9 4.0668C8.8896 4.0668 8.8 3.977 8.8 3.8668V3.4036C7.9156 3.4348 7.0828 3.672 6.3482 4.0688L6.5842 4.4778C6.6392 4.5732 6.6068 4.6956 6.511 4.7508C6.4154 4.8058 6.293 4.773 6.2378 4.6778L6.0032 4.2712C5.2906 4.7248 4.6866 5.3344 4.2406 6.0522L4.6778 6.3048C4.7736 6.3598 4.8064 6.4822 4.751 6.5778C4.6956 6.6734 4.5734 6.7064 4.4778 6.651L4.0416 6.3992C3.6612 7.1212 3.434 7.936 3.4036 8.8H3.8666C3.9772 8.8 4.0666 8.8894 4.0666 9C4.0666 9.1106 3.9772 9.2 3.8666 9.2H3.4036C3.4346 10.0844 3.672 10.9172 4.0686 11.652L4.4776 11.4156C4.5734 11.3606 4.6956 11.3934 4.7508 11.489C4.806 11.5846 4.7732 11.707 4.6776 11.762L4.2714 11.9972C4.725 12.71 5.335 13.314 6.0528 13.76L6.3046 13.3222C6.3598 13.2268 6.4822 13.1936 6.5778 13.2492C6.6736 13.3042 6.7064 13.427 6.651 13.5222L6.3994 13.9586C7.1212 14.339 7.9362 14.566 8.8 14.5964V14.1332C8.8 14.023 8.8896 13.9332 9 13.9332C9.1104 13.9332 9.2 14.023 9.2 14.1332V14.5964C10.0844 14.5652 10.9172 14.328 11.6518 13.9312L11.4156 13.5222C11.3608 13.4268 11.3932 13.3042 11.489 13.2492C11.5846 13.1942 11.707 13.227 11.7622 13.3222L11.9968 13.7288C12.7094 13.2752 13.3134 12.6656 13.7594 11.9476L13.3222 11.6952C13.2264 11.6402 13.1936 11.5178 13.249 11.4222C13.3044 11.3266 13.4266 11.2936 13.5222 11.3488L13.9584 11.6008C14.3386 10.879 14.5656 10.064 14.5962 9.2H14.1332C14.0226 9.2 13.9332 9.1106 13.9332 9C13.9332 8.8894 14.0226 8.8 14.1332 8.8H14.5962C14.5652 7.916 14.328 7.0832 13.9314 6.3486L13.5222 6.5844C13.4264 6.6394 13.3042 6.6068 13.249 6.511C13.194 6.4154 13.2268 6.293 13.3224 6.2378ZM11.8 9.2H9C8.8896 9.2 8.8 9.1106 8.8 9V5.4C8.8 5.2894 8.8896 5.2 9 5.2C9.1104 5.2 9.2 5.2894 9.2 5.4V8.8H11.8C11.9104 8.8 12 8.8894 12 9C12 9.1106 11.9104 9.2 11.8 9.2ZM8.9996 0C4.0292 0 0 4.0294 0 9.0002C0 13.9708 4.0292 18 8.9996 18C13.9708 18 18 13.9708 18 9.0002C18 4.0294 13.9708 0 8.9996 0ZM9 15C5.6864 15 3 12.3136 3 9C3 5.6864 5.6864 3 9 3C12.3136 3 15 5.6864 15 9C15 12.3136 12.3136 15 9 15Z" fill="#F7493E"/>
</svg>
